<svg width="50" height="50" viewBox="0 0 60 60" fill="none" xmlns="http://www.w3.org/2000/svg">
<path d="M15 33.25C15 29.125 16.675 25.375 19.4 22.65L15.85 19.1C12.25 22.725 10 27.725 10 33.25C10 43.45 17.625 51.85 27.5 53.075V48.025C20.425 46.825 15 40.675 15 33.25ZM50 33.25C50 22.2 41.05 13.25 30 13.25C29.85 13.25 29.7 13.275 29.55 13.275L32.275 10.55L28.75 7L20 15.75L28.75 24.5L32.275 20.975L29.575 18.275C29.725 18.275 29.875 18.25 30 18.25C38.275 18.25 45 24.975 45 33.25C45 40.675 39.575 46.825 32.5 48.025V53.075C42.375 51.85 50 43.45 50 33.25Z" fill="white"/>
</svg>
